HIERARCHY
ROOT mixamorig:Hips
{
	OFFSET -0.000008 104.274872 1.554316
	CHANNELS 6 Xposition Yposition Zposition Xrotation Yrotation Zrotation
	JOINT mixamorig:Spine
	{
		OFFSET -0.000005 10.181595 0.131519
		CHANNELS 6 Xposition Yposition Zposition Xrotation Yrotation Zrotation
		JOINT mixamorig:Spine1
		{
			OFFSET -0.000000 9.893959 -1.470707
			CHANNELS 6 Xposition Yposition Zposition Xrotation Yrotation Zrotation
			JOINT mixamorig:Spine2
			{
				OFFSET -0.000000 9.220757 -1.370641
				CHANNELS 6 Xposition Yposition Zposition Xrotation Yrotation Zrotation
				JOINT mixamorig:Neck
				{
					OFFSET 0.000001 16.740417 -2.049036
					CHANNELS 6 Xposition Yposition Zposition Xrotation Yrotation Zrotation
					JOINT mixamorig:Head
					{
						OFFSET 0.000000 9.617874 1.685006
						CHANNELS 6 Xposition Yposition Zposition Xrotation Yrotation Zrotation
						JOINT mixamorig:HeadTop_End
						{
							OFFSET 0.000002 22.037354 7.501101
							CHANNELS 6 Xposition Yposition Zposition Xrotation Yrotation Zrotation
							End Site
							{
								OFFSET 0.000168 2310.654297 -282.823242
							}
						}
					}
				}
				JOINT mixamorig:RightShoulder
				{
					OFFSET -4.569970 11.014908 -2.160885
					CHANNELS 6 Xposition Yposition Zposition Xrotation Yrotation Zrotation
					JOINT mixamorig:RightArm
					{
						OFFSET -10.592851 -0.524811 -2.232101
						CHANNELS 6 Xposition Yposition Zposition Xrotation Yrotation Zrotation
						JOINT mixamorig:RightForeArm
						{
							OFFSET -27.841511 0.000031 -0.000004
							CHANNELS 6 Xposition Yposition Zposition Xrotation Yrotation Zrotation
							JOINT mixamorig:RightHand
							{
								OFFSET -28.328831 -0.000015 0.000015
								CHANNELS 6 Xposition Yposition Zposition Xrotation Yrotation Zrotation
								JOINT mixamorig:RightHandThumb1
								{
									OFFSET -2.464806 -1.573990 2.681852
									CHANNELS 6 Xposition Yposition Zposition Xrotation Yrotation Zrotation
									JOINT mixamorig:RightHandThumb2
									{
										OFFSET -3.215179 -1.872803 1.924282
										CHANNELS 6 Xposition Yposition Zposition Xrotation Yrotation Zrotation
										JOINT mixamorig:RightHandThumb3
										{
											OFFSET -2.654831 -1.527969 1.512609
											CHANNELS 6 Xposition Yposition Zposition Xrotation Yrotation Zrotation
											JOINT mixamorig:RightHandThumb4
											{
												OFFSET -2.018814 -1.152008 1.108052
												CHANNELS 6 Xposition Yposition Zposition Xrotation Yrotation Zrotation
												End Site
												{
													OFFSET -188.809540 -114.533607 132.431396
												}
											}
										}
									}
								}
								JOINT mixamorig:RightHandIndex1
								{
									OFFSET -9.108284 -0.517868 2.259835
									CHANNELS 6 Xposition Yposition Zposition Xrotation Yrotation Zrotation
									JOINT mixamorig:RightHandIndex2
									{
										OFFSET -3.699989 0.000000 0.001215
										CHANNELS 6 Xposition Yposition Zposition Xrotation Yrotation Zrotation
										JOINT mixamorig:RightHandIndex3
										{
											OFFSET -2.850006 0.000031 -0.000522
											CHANNELS 6 Xposition Yposition Zposition Xrotation Yrotation Zrotation
											JOINT mixamorig:RightHandIndex4
											{
												OFFSET -2.772186 -0.000015 -0.000020
												CHANNELS 6 Xposition Yposition Zposition Xrotation Yrotation Zrotation
												End Site
												{
													OFFSET -277.218445 0.000000 -0.050231
												}
											}
										}
									}
								}
								JOINT mixamorig:RightHandMiddle1
								{
									OFFSET -9.532516 -0.000031 -0.000023
									CHANNELS 6 Xposition Yposition Zposition Xrotation Yrotation Zrotation
									JOINT mixamorig:RightHandMiddle2
									{
										OFFSET -3.700005 -0.000015 0.003713
										CHANNELS 6 Xposition Yposition Zposition Xrotation Yrotation Zrotation
										JOINT mixamorig:RightHandMiddle3
										{
											OFFSET -2.949974 0.000015 -0.002054
											CHANNELS 6 Xposition Yposition Zposition Xrotation Yrotation Zrotation
											JOINT mixamorig:RightHandMiddle4
											{
												OFFSET -2.946640 0.000000 -0.000156
												CHANNELS 6 Xposition Yposition Zposition Xrotation Yrotation Zrotation
												End Site
												{
													OFFSET -294.664337 0.000000 -0.113670
												}
											}
										}
									}
								}
								JOINT mixamorig:RightHandRing1
								{
									OFFSET -9.103600 -0.043076 -1.865134
									CHANNELS 6 Xposition Yposition Zposition Xrotation Yrotation Zrotation
									JOINT mixamorig:RightHandRing2
									{
										OFFSET -3.379288 0.000000 -0.001055
										CHANNELS 6 Xposition Yposition Zposition Xrotation Yrotation Zrotation
										JOINT mixamorig:RightHandRing3
										{
											OFFSET -2.889687 -0.000015 0.000379
											CHANNELS 6 Xposition Yposition Zposition Xrotation Yrotation Zrotation
											JOINT mixamorig:RightHandRing4
											{
												OFFSET -2.638809 -0.000015 0.000941
												CHANNELS 6 Xposition Yposition Zposition Xrotation Yrotation Zrotation
												End Site
												{
													OFFSET -263.880371 0.000000 0.516020
												}
											}
										}
									}
								}
								JOINT mixamorig:RightHandPinky1
								{
									OFFSET -8.076683 -0.486710 -3.806280
									CHANNELS 6 Xposition Yposition Zposition Xrotation Yrotation Zrotation
									JOINT mixamorig:RightHandPinky2
									{
										OFFSET -3.600014 -0.000015 -0.003747
										CHANNELS 6 Xposition Yposition Zposition Xrotation Yrotation Zrotation
										JOINT mixamorig:RightHandPinky3
										{
											OFFSET -2.099983 0.000000 -0.005739
											CHANNELS 6 Xposition Yposition Zposition Xrotation Yrotation Zrotation
											JOINT mixamorig:RightHandPinky4
											{
												OFFSET -2.115768 -0.000031 -0.003680
												CHANNELS 6 Xposition Yposition Zposition Xrotation Yrotation Zrotation
												End Site
												{
													OFFSET -211.577087 0.000000 -0.350686
												}
											}
										}
									}
								}
							}
						}
					}
				}
				JOINT mixamorig:LeftShoulder
				{
					OFFSET 4.570447 11.014725 -2.160855
					CHANNELS 6 Xposition Yposition Zposition Xrotation Yrotation Zrotation
					JOINT mixamorig:LeftArm
					{
						OFFSET 10.592371 -0.524597 -2.232119
						CHANNELS 6 Xposition Yposition Zposition Xrotation Yrotation Zrotation
						JOINT mixamorig:LeftForeArm
						{
							OFFSET 27.841532 -0.000031 0.000026
							CHANNELS 6 Xposition Yposition Zposition Xrotation Yrotation Zrotation
							JOINT mixamorig:LeftHand
							{
								OFFSET 28.328846 -0.000061 0.000022
								CHANNELS 6 Xposition Yposition Zposition Xrotation Yrotation Zrotation
								JOINT mixamorig:LeftHandThumb1
								{
									OFFSET 2.466141 -1.576172 2.681732
									CHANNELS 6 Xposition Yposition Zposition Xrotation Yrotation Zrotation
									JOINT mixamorig:LeftHandThumb2
									{
										OFFSET 3.217812 -1.872070 1.916482
										CHANNELS 6 Xposition Yposition Zposition Xrotation Yrotation Zrotation
										JOINT mixamorig:LeftHandThumb3
										{
											OFFSET 2.656029 -1.528778 1.514513
											CHANNELS 6 Xposition Yposition Zposition Xrotation Yrotation Zrotation
											JOINT mixamorig:LeftHandThumb4
											{
												OFFSET 2.020889 -1.154053 1.115139
												CHANNELS 6 Xposition Yposition Zposition Xrotation Yrotation Zrotation
												End Site
												{
													OFFSET 190.885437 -115.081749 130.048782
												}
											}
										}
									}
								}
								JOINT mixamorig:LeftHandIndex1
								{
									OFFSET 9.109314 -0.518021 2.259871
									CHANNELS 6 Xposition Yposition Zposition Xrotation Yrotation Zrotation
									JOINT mixamorig:LeftHandIndex2
									{
										OFFSET 3.699989 0.000000 -0.000322
										CHANNELS 6 Xposition Yposition Zposition Xrotation Yrotation Zrotation
										JOINT mixamorig:LeftHandIndex3
										{
											OFFSET 2.850006 0.000000 0.000352
											CHANNELS 6 Xposition Yposition Zposition Xrotation Yrotation Zrotation
											JOINT mixamorig:LeftHandIndex4
											{
												OFFSET 2.774864 -0.000031 -0.000027
												CHANNELS 6 Xposition Yposition Zposition Xrotation Yrotation Zrotation
												End Site
												{
													OFFSET 277.486267 0.000000 -0.009857
												}
											}
										}
									}
								}
								JOINT mixamorig:LeftHandMiddle1
								{
									OFFSET 9.533394 0.000061 0.000044
									CHANNELS 6 Xposition Yposition Zposition Xrotation Yrotation Zrotation
									JOINT mixamorig:LeftHandMiddle2
									{
										OFFSET 3.699989 -0.000015 -0.000231
										CHANNELS 6 Xposition Yposition Zposition Xrotation Yrotation Zrotation
										JOINT mixamorig:LeftHandMiddle3
										{
											OFFSET 2.949997 -0.000015 -0.000059
											CHANNELS 6 Xposition Yposition Zposition Xrotation Yrotation Zrotation
											JOINT mixamorig:LeftHandMiddle4
											{
												OFFSET 2.952896 0.000031 0.000063
												CHANNELS 6 Xposition Yposition Zposition Xrotation Yrotation Zrotation
												End Site
												{
													OFFSET 295.289337 0.000000 0.022810
												}
											}
										}
									}
								}
								JOINT mixamorig:LeftHandRing1
								{
									OFFSET 9.104523 -0.042999 -1.865074
									CHANNELS 6 Xposition Yposition Zposition Xrotation Yrotation Zrotation
									JOINT mixamorig:LeftHandRing2
									{
										OFFSET 3.150009 -0.000031 0.000043
										CHANNELS 6 Xposition Yposition Zposition Xrotation Yrotation Zrotation
										JOINT mixamorig:LeftHandRing3
										{
											OFFSET 2.949982 -0.000015 0.000040
											CHANNELS 6 Xposition Yposition Zposition Xrotation Yrotation Zrotation
											JOINT mixamorig:LeftHandRing4
											{
												OFFSET 2.644348 0.000000 0.000057
												CHANNELS 6 Xposition Yposition Zposition Xrotation Yrotation Zrotation
												End Site
												{
													OFFSET 264.434631 0.000000 0.012105
												}
											}
										}
									}
								}
								JOINT mixamorig:LeftHandPinky1
								{
									OFFSET 8.077789 -0.486847 -3.806259
									CHANNELS 6 Xposition Yposition Zposition Xrotation Yrotation Zrotation
									JOINT mixamorig:LeftHandPinky2
									{
										OFFSET 3.599953 0.000031 0.014727
										CHANNELS 6 Xposition Yposition Zposition Xrotation Yrotation Zrotation
										JOINT mixamorig:LeftHandPinky3
										{
											OFFSET 2.100021 0.000015 0.007705
											CHANNELS 6 Xposition Yposition Zposition Xrotation Yrotation Zrotation
											JOINT mixamorig:LeftHandPinky4
											{
												OFFSET 2.125504 0.000031 0.007517
												CHANNELS 6 Xposition Yposition Zposition Xrotation Yrotation Zrotation
												End Site
												{
													OFFSET 212.550781 0.000000 0.625752
												}
											}
										}
									}
								}
							}
						}
					}
				}
			}
		}
	}
	JOINT mixamorig:RightUpLeg
	{
		OFFSET -8.207787 -6.751648 -1.599560
		CHANNELS 6 Xposition Yposition Zposition Xrotation Yrotation Zrotation
		JOINT mixamorig:RightLeg
		{
			OFFSET -0.000002 -44.370117 0.345942
			CHANNELS 6 Xposition Yposition Zposition Xrotation Yrotation Zrotation
			JOINT mixamorig:RightFoot
			{
				OFFSET 0.000003 -44.423679 -3.043532
				CHANNELS 6 Xposition Yposition Zposition Xrotation Yrotation Zrotation
				JOINT mixamorig:RightToeBase
				{
					OFFSET -0.000002 -8.728671 10.710558
					CHANNELS 6 Xposition Yposition Zposition Xrotation Yrotation Zrotation
					JOINT mixamorig:RightToe_End
					{
						OFFSET -0.000001 -0.000679 9.278119
						CHANNELS 6 Xposition Yposition Zposition Xrotation Yrotation Zrotation
						End Site
						{
							OFFSET 0.000000 -0.067690 927.812134
						}
					}
				}
			}
		}
	}
	JOINT mixamorig:LeftUpLeg
	{
		OFFSET 8.207793 -6.751686 -1.599556
		CHANNELS 6 Xposition Yposition Zposition Xrotation Yrotation Zrotation
		JOINT mixamorig:LeftLeg
		{
			OFFSET -0.000004 -44.370014 0.346954
			CHANNELS 6 Xposition Yposition Zposition Xrotation Yrotation Zrotation
			JOINT mixamorig:LeftFoot
			{
				OFFSET -0.000001 -44.423672 -3.044401
				CHANNELS 6 Xposition Yposition Zposition Xrotation Yrotation Zrotation
				JOINT mixamorig:LeftToeBase
				{
					OFFSET -0.000002 -8.728669 10.710558
					CHANNELS 6 Xposition Yposition Zposition Xrotation Yrotation Zrotation
					JOINT mixamorig:LeftToe_End
					{
						OFFSET -0.000003 -0.000679 9.278133
						CHANNELS 6 Xposition Yposition Zposition Xrotation Yrotation Zrotation
						End Site
						{
							OFFSET 0.000000 -0.068021 927.813477
						}
					}
				}
			}
		}
	}
}
MOTION
Frames: 3
Frame Time: 0.033333
0.000006 104.270477 1.554256 0.000010 0.000003 -0.000113 -0.000005 10.181587 0.131522 0.000001 -0.000003 0.000084 -0.000000 9.893967 -1.470711 0.000001 0.000000 -0.000000 -0.000000 9.220802 -1.370642 0.000000 -0.000000 -0.000000 0.000001 16.740433 -2.049030 0.000000 -0.000000 -0.000000 0.000000 9.617859 1.685014 0.000000 0.000000 0.000000 0.000002 22.037384 7.501101 0.000000 -0.000000 0.000000 -4.569968 11.014880 -2.160881 0.000008 0.000001 -0.000038 -10.592800 -0.524839 -2.231766 72.044938 60.528631 -45.983046 -27.841499 -0.000001 0.000587 16.079864 101.006695 -19.448907 -28.328829 0.000019 0.000030 -0.000320 -0.000044 0.000007 -2.464580 -1.574178 2.682270 43.944450 -141.315876 111.162927 -3.214952 -1.873055 1.924523 86.145160 216.956943 140.500242 -2.654776 -1.528256 1.512820 106.915656 195.503742 -563.298378 -2.018831 -1.151999 1.108068 -0.000000 0.000000 0.000004 -9.108335 -0.517977 2.260265 86.235776 161.131047 -159.849294 -3.700022 0.000006 0.001778 -122.198901 27.227482 47.364596 -2.849999 0.000095 0.000064 399.323841 160.061003 -127.610050 -2.772159 -0.000011 -0.000016 -0.000002 0.000000 0.000001 -9.532549 -0.000216 0.000305 103.837597 167.965526 -170.487751 -3.700038 -0.000082 0.004193 252.824151 18.375929 24.672093 -2.949988 0.000000 -0.001505 229.411410 14.831244 31.584970 -2.946628 0.000011 -0.000151 0.000002 0.000002 0.000001 -9.103652 -0.043227 -1.864817 286.783961 12.713701 -350.557738 -3.379301 -0.000130 -0.000582 254.687919 10.639104 13.930523 -2.889728 -0.000046 0.000923 232.641680 6.547305 13.260682 -2.638814 -0.000034 0.000951 -0.000003 -0.000000 0.000002 -8.076717 -0.486856 -3.806036 -63.770082 12.433308 7.697064 -3.600009 -0.000220 -0.003360 268.769283 5.822290 5.661773 -2.099996 -0.000160 -0.005296 248.037773 2.646833 3.637014 -2.115774 -0.000041 -0.003661 -0.000001 -0.000001 -0.000004 4.570446 11.014691 -2.160851 -0.000018 0.000010 -0.000021 10.592535 -0.524508 -2.232402 77.102597 -60.180121 49.571471 27.841776 -0.000057 -0.000132 210.826438 -80.632063 215.998326 28.328831 -0.000027 0.000019 0.000023 -0.000089 0.000000 2.466173 -1.576149 2.681895 35.760275 135.069928 -99.618903 3.217829 -1.871972 1.916532 67.811020 138.671855 -126.451459 2.656058 -1.528728 1.514608 75.261943 151.918229 223.055441 2.020887 -1.154084 1.115140 0.000000 0.000002 0.000004 9.109260 -0.517848 2.260117 84.656636 -159.499042 157.547288 3.699817 0.000157 -0.000089 54.411073 -141.952750 112.297674 2.849822 0.000017 0.000466 184.797134 -29.360022 198.165002 2.774871 -0.000032 -0.000027 -0.000002 -0.000001 -0.000003 9.533367 0.000206 0.000288 90.546582 -167.065143 167.192253 3.699908 0.000230 0.000015 67.214608 -157.111262 146.118578 2.949733 0.000201 0.000085 198.416586 -21.350353 261.392651 2.952881 -0.000014 0.000061 -0.000001 0.000000 0.000000 9.104516 -0.042873 -1.864835 94.773465 -168.859857 169.745241 3.149934 0.000282 0.000295 247.611488 -13.956100 -20.719396 2.949824 0.000406 0.000247 211.114221 -11.364030 -39.335398 2.644325 0.000055 0.000054 -0.000001 0.000000 0.000000 8.077768 -0.486797 -3.806031 111.232431 -169.130510 172.298502 3.599930 0.000193 0.014988 270.862626 -7.534011 -7.778312 2.099979 0.000285 0.007949 244.394523 -4.777568 -8.157470 2.125512 -0.000017 0.007511 -0.000004 -0.000001 -0.000000 -8.207786 -6.751667 -1.599560 -0.077001 -0.000003 0.000080 -0.000002 -44.370110 0.345938 0.153719 -0.000000 -0.000000 0.000000 -44.423679 -3.043532 -0.076700 0.000000 -0.000002 -0.000006 -8.728667 10.710559 -0.000009 -0.000000 -0.000000 -0.000001 -0.000679 9.278123 0.000000 -0.000000 -0.000000 8.207792 -6.751710 -1.599556 -0.074518 -0.000003 0.000081 -0.000002 -44.370014 0.346960 0.148822 0.000002 0.000000 -0.000001 -44.423664 -3.044403 -0.074314 0.000000 -0.000002 -0.000004 -8.728671 10.710558 0.000007 -0.000000 -0.000000 0.000000 -0.000680 9.278137 -0.000000 0.000000 -0.000001 
0.000006 104.270477 1.554256 0.000010 0.000003 -0.000113 -0.000005 10.181587 0.131522 0.000001 -0.000003 0.000084 -0.000000 9.893967 -1.470711 0.000001 0.000000 -0.000000 -0.000000 9.220802 -1.370642 0.000000 -0.000000 -0.000000 0.000001 16.740433 -2.049030 0.000000 -0.000000 -0.000000 0.000000 9.617859 1.685014 0.000000 0.000000 0.000000 0.000002 22.037384 7.501101 0.000000 -0.000000 0.000000 -4.569968 11.014880 -2.160881 0.000008 0.000001 -0.000038 -10.592803 -0.524848 -2.231765 72.724473 61.127017 -46.997128 -27.841513 0.000010 0.000576 15.218126 99.657904 -17.984313 -28.328842 0.000018 0.000029 -0.000323 -0.000045 0.000007 -2.464562 -1.574161 2.682267 42.173006 -139.828985 108.699592 -3.214954 -1.873057 1.924550 81.948869 216.584137 138.041060 -2.654774 -1.528278 1.512829 103.347483 193.749135 -564.308371 -2.018838 -1.151990 1.108057 -0.000000 -0.000004 0.000000 -9.108340 -0.517972 2.260268 84.985933 159.834350 -158.006523 -3.700016 0.000028 0.001754 -122.814096 28.271707 49.591053 -2.849961 0.000121 0.000072 394.866842 159.755215 -120.761583 -2.772164 -0.000013 -0.000018 0.000005 0.000001 -0.000003 -9.532556 -0.000196 0.000297 104.884569 166.695602 -169.685777 -3.700037 -0.000078 0.004219 250.471015 18.304653 25.629537 -2.949997 0.000010 -0.001495 224.975981 15.051406 35.390772 -2.946622 0.000013 -0.000153 -0.000000 0.000001 -0.000001 -9.103655 -0.043208 -1.864829 288.686497 13.702530 -350.165275 -3.379299 -0.000129 -0.000572 252.648533 10.032647 13.632498 -2.889718 -0.000035 0.000922 230.473368 5.940684 12.638229 -2.638813 -0.000002 0.000939 -0.000001 -0.000000 -0.000001 -8.076722 -0.486839 -3.806045 -61.211329 12.620357 7.432311 -3.599999 -0.000235 -0.003361 267.542963 5.440272 5.383044 -2.099984 -0.000159 -0.005275 246.670943 2.169283 3.003799 -2.115775 -0.000056 -0.003690 0.000000 0.000000 -0.000003 4.570446 11.014691 -2.160851 -0.000018 0.000010 -0.000021 10.592539 -0.524511 -2.232409 78.094737 -61.020978 51.096304 27.841782 -0.000052 -0.000139 204.068950 -83.757858 206.750345 28.328831 -0.000015 0.000027 0.000019 -0.000087 -0.000003 2.466193 -1.576121 2.681871 32.874889 137.405292 -98.550901 3.217818 -1.871995 1.916527 66.825505 141.653957 -127.258923 2.656083 -1.528720 1.514622 74.246499 157.720857 220.880900 2.020883 -1.154084 1.115144 0.000001 0.000003 0.000006 9.109255 -0.517858 2.260115 87.156158 -156.289850 155.124880 3.699806 0.000141 -0.000105 55.787974 -137.835745 107.870742 2.849985 -0.000002 0.000423 169.323928 -30.623525 142.308508 2.774877 -0.000047 -0.000032 0.000005 0.000002 0.000001 9.533361 0.000212 0.000281 93.281191 -163.803414 164.698974 3.699886 0.000233 0.000041 66.341177 -156.909280 145.291661 2.949789 0.000030 0.000036 183.877012 -18.016046 204.115395 2.952863 -0.000031 0.000066 -0.000000 0.000003 -0.000002 9.104498 -0.042888 -1.864834 98.467531 -165.511876 167.491005 3.149948 0.000272 0.000294 250.803809 -13.183606 -18.472030 2.949862 0.000415 0.000191 204.342307 -6.951329 -31.459158 2.644319 0.000027 0.000055 0.000001 -0.000000 -0.000001 8.077766 -0.486774 -3.806024 113.566006 -165.702083 170.392784 3.599931 0.000200 0.014974 268.792915 -7.806165 -8.339063 2.100008 0.000332 0.007919 229.187052 0.604430 0.430028 2.125511 -0.000015 0.007516 0.000000 -0.000000 0.000000 -8.207786 -6.751667 -1.599560 -0.077001 -0.000003 0.000080 -0.000002 -44.370110 0.345938 0.153719 -0.000000 -0.000000 0.000000 -44.423679 -3.043532 -0.076700 0.000000 -0.000002 -0.000006 -8.728667 10.710559 -0.000009 -0.000000 -0.000000 -0.000001 -0.000679 9.278123 0.000000 -0.000000 -0.000000 8.207792 -6.751710 -1.599556 -0.074518 -0.000003 0.000081 -0.000002 -44.370014 0.346960 0.148822 0.000002 0.000000 -0.000001 -44.423664 -3.044403 -0.074314 0.000000 -0.000002 -0.000004 -8.728671 10.710558 0.000007 -0.000000 -0.000000 0.000000 -0.000680 9.278137 -0.000000 0.000000 -0.000001 
0.000006 104.270477 1.554256 0.000010 0.000003 -0.000113 -0.000005 10.181587 0.131522 0.000001 -0.000003 0.000084 -0.000000 9.893967 -1.470711 0.000001 0.000000 -0.000000 -0.000000 9.220802 -1.370642 0.000000 -0.000000 -0.000000 0.000001 16.740433 -2.049030 0.000000 -0.000000 -0.000000 0.000000 9.617859 1.685014 0.000000 0.000000 0.000000 0.000002 22.037384 7.501101 0.000000 -0.000000 0.000000 -4.569968 11.014880 -2.160881 0.000008 0.000001 -0.000038 -10.592807 -0.524841 -2.231766 74.389721 59.145654 -46.597234 -27.841503 0.000009 0.000582 17.470178 99.794740 -20.679431 -28.328838 0.000022 0.000024 -0.000318 -0.000044 0.000007 -2.464559 -1.574188 2.682271 45.416271 -140.808530 112.042690 -3.214976 -1.873061 1.924532 83.420987 215.843117 139.243542 -2.654767 -1.528264 1.512813 104.085424 193.069504 -563.849711 -2.018842 -1.151985 1.108055 -0.000002 -0.000004 0.000005 -9.108334 -0.517973 2.260267 84.790358 160.748721 -158.927724 -3.700011 0.000016 0.001756 -120.999151 26.686126 45.478350 -2.849995 0.000120 0.000073 397.062474 161.420470 -127.977528 -2.772150 -0.000019 -0.000021 0.000001 0.000001 -0.000005 -9.532551 -0.000197 0.000294 106.078008 166.270696 -169.584390 -3.700030 -0.000072 0.004216 248.686095 18.199157 26.315918 -2.949970 0.000039 -0.001481 220.011608 13.594361 36.245382 -2.946630 -0.000000 -0.000157 0.000000 -0.000001 0.000005 -9.103660 -0.043221 -1.864861 292.129704 14.232052 -350.413840 -3.379302 -0.000141 -0.000592 252.879039 11.465426 15.501529 -2.889725 0.000007 0.000926 226.160295 6.597969 15.485968 -2.638809 -0.000001 0.000938 0.000002 -0.000001 -0.000000 -8.076694 -0.486845 -3.806055 -61.210304 13.394610 7.895234 -3.600013 -0.000231 -0.003349 268.023672 7.079522 7.044811 -2.099997 -0.000154 -0.005276 245.518144 2.979710 4.334452 -2.115772 -0.000053 -0.003688 0.000001 -0.000000 -0.000005 4.570446 11.014691 -2.160851 -0.000018 0.000010 -0.000021 10.592541 -0.524503 -2.232404 79.189609 -59.506247 50.609468 27.841772 -0.000050 -0.000134 214.204349 -83.136851 218.266987 28.328821 -0.000016 0.000029 0.000019 -0.000089 -0.000002 2.466188 -1.576125 2.681872 36.320514 137.461519 -101.772605 3.217854 -1.871983 1.916537 68.534480 142.001641 -128.623937 2.656079 -1.528721 1.514620 72.269760 155.288299 223.184327 2.020892 -1.154073 1.115155 -0.000001 0.000003 -0.000001 9.109240 -0.517865 2.260102 88.745590 -156.200020 155.693889 3.699826 0.000143 -0.000091 58.717401 -139.196113 113.055361 2.849908 -0.000000 0.000443 176.722607 -31.747819 168.505999 2.774881 -0.000019 -0.000027 -0.000001 -0.000001 -0.000001 9.533364 0.000192 0.000274 95.207120 -163.473215 164.897897 3.699888 0.000224 0.000013 65.943783 -156.526325 144.484387 2.949819 -0.000011 0.000029 181.581590 -18.077561 189.931988 2.952857 -0.000018 0.000063 0.000000 0.000001 0.000001 9.104504 -0.042884 -1.864844 98.701506 -165.513734 167.543762 3.149942 0.000285 0.000308 248.339558 -14.388012 -21.068402 2.949779 0.000434 0.000180 197.189132 -7.911131 -49.173339 2.644319 0.000046 0.000059 0.000003 -0.000001 -0.000004 8.077766 -0.486783 -3.806036 113.202217 -164.915819 169.808311 3.599910 0.000208 0.015000 266.696375 -10.507391 -11.484007 2.099976 0.000344 0.007915 228.044321 -2.058978 -5.473957 2.125511 0.000000 0.007508 -0.000001 0.000000 0.000000 -8.207786 -6.751667 -1.599560 -0.077001 -0.000003 0.000080 -0.000002 -44.370110 0.345938 0.153719 -0.000000 -0.000000 0.000000 -44.423679 -3.043532 -0.076700 0.000000 -0.000002 -0.000006 -8.728667 10.710559 -0.000009 -0.000000 -0.000000 -0.000001 -0.000679 9.278123 0.000000 -0.000000 -0.000000 8.207792 -6.751710 -1.599556 -0.074518 -0.000003 0.000081 -0.000002 -44.370014 0.346960 0.148822 0.000002 0.000000 -0.000001 -44.423664 -3.044403 -0.074314 0.000000 -0.000002 -0.000004 -8.728671 10.710558 0.000007 -0.000000 -0.000000 0.000000 -0.000680 9.278137 -0.000000 0.000000 -0.000001 
